<mxfile host="65bd71144e">
    <diagram id="P6ZjfjPll4DDc54mbwB-" name="Página-1">
        <mxGraphModel dx="650" dy="232" grid="1" gridSize="10" guides="1" tooltips="1" connect="1" arrows="1" fold="1" page="1" pageScale="1" pageWidth="827" pageHeight="1169" math="0" shadow="0">
            <root>
                <mxCell id="0"/>
                <mxCell id="1" parent="0"/>
                <mxCell id="2" value="&lt;div style=&quot;color: rgb(212 , 212 , 212) ; background-color: rgb(30 , 30 , 30) ; font-family: &amp;#34;consolas&amp;#34; , &amp;#34;courier new&amp;#34; , monospace ; font-weight: normal ; font-size: 14px ; line-height: 19px&quot;&gt;&lt;div&gt;&lt;span style=&quot;color: #569cd6 ; font-weight: bold&quot;&gt;Reliza el diarma a de flujo y el programa en python que lea un numero entero y positivo de cualquier número de dígitos, que calculo su numero inverso y lo imprima junto con el numero leído&lt;/span&gt;&lt;/div&gt;&lt;/div&gt;" style="text;whiteSpace=wrap;html=1;align=center;" parent="1" vertex="1">
                    <mxGeometry x="90" y="40" width="550" height="70" as="geometry"/>
                </mxCell>
                <mxCell id="5" value="" style="edgeStyle=none;html=1;" edge="1" parent="1" source="6" target="8">
                    <mxGeometry relative="1" as="geometry"/>
                </mxCell>
                <mxCell id="6" value="INICIO" style="ellipse;whiteSpace=wrap;html=1;fillColor=#FF6666;fontColor=#ffffff;strokeColor=#66FFFF;" vertex="1" parent="1">
                    <mxGeometry x="260" y="130" width="120" height="40" as="geometry"/>
                </mxCell>
                <mxCell id="7" value="" style="edgeStyle=none;html=1;" edge="1" parent="1" source="8" target="10">
                    <mxGeometry relative="1" as="geometry"/>
                </mxCell>
                <mxCell id="8" value="numero entero_positivo" style="shape=parallelogram;perimeter=parallelogramPerimeter;whiteSpace=wrap;html=1;fixedSize=1;fillColor=#FF6666;strokeColor=#66FFFF;fontColor=#ffffff;" vertex="1" parent="1">
                    <mxGeometry x="260" y="210" width="120" height="60" as="geometry"/>
                </mxCell>
                <mxCell id="9" value="" style="edgeStyle=none;html=1;" edge="1" parent="1" source="10" target="13">
                    <mxGeometry relative="1" as="geometry"/>
                </mxCell>
                <mxCell id="10" value="&lt;div style=&quot;color: rgb(212 , 212 , 212) ; font-family: &amp;#34;consolas&amp;#34; , &amp;#34;courier new&amp;#34; , monospace ; font-size: 14px ; line-height: 19px&quot;&gt;&lt;div style=&quot;line-height: 19px&quot;&gt;m=0&lt;/div&gt;&lt;div style=&quot;line-height: 19px&quot;&gt;numero inverso =o&amp;nbsp;&lt;/div&gt;&lt;/div&gt;" style="whiteSpace=wrap;html=1;fillColor=#FF6666;strokeColor=#66FFFF;fontColor=#ffffff;" vertex="1" parent="1">
                    <mxGeometry x="246.25" y="300" width="147.5" height="50" as="geometry"/>
                </mxCell>
                <mxCell id="11" value="" style="edgeStyle=none;html=1;" edge="1" parent="1" source="13" target="14">
                    <mxGeometry relative="1" as="geometry"/>
                </mxCell>
                <mxCell id="12" value="" style="edgeStyle=none;html=1;" edge="1" parent="1" source="13" target="16">
                    <mxGeometry relative="1" as="geometry">
                        <Array as="points">
                            <mxPoint x="530" y="460"/>
                        </Array>
                    </mxGeometry>
                </mxCell>
                <mxCell id="13" value="n != 0" style="rhombus;whiteSpace=wrap;html=1;fillColor=#FF6666;strokeColor=#66FFFF;fontColor=#ffffff;" vertex="1" parent="1">
                    <mxGeometry x="220" y="425" width="200" height="80" as="geometry"/>
                </mxCell>
                <mxCell id="14" value="d = ( n//10)&lt;br&gt;r=n-d*10&lt;br&gt;numero inverso = numero inverso + r&lt;br&gt;n = d" style="whiteSpace=wrap;html=1;fillColor=#FF6666;strokeColor=#66FFFF;fontColor=#ffffff;" vertex="1" parent="1">
                    <mxGeometry x="257.5" y="554.5" width="125" height="75.5" as="geometry"/>
                </mxCell>
                <mxCell id="15" value="" style="edgeStyle=none;html=1;" edge="1" parent="1" source="16" target="17">
                    <mxGeometry relative="1" as="geometry"/>
                </mxCell>
                <mxCell id="16" value="m, numero inverso" style="shape=document;whiteSpace=wrap;html=1;boundedLbl=1;fillColor=#FF6666;strokeColor=#66FFFF;fontColor=#ffffff;" vertex="1" parent="1">
                    <mxGeometry x="470" y="505" width="120" height="80" as="geometry"/>
                </mxCell>
                <mxCell id="17" value="FIN" style="ellipse;whiteSpace=wrap;html=1;fillColor=#FF6666;strokeColor=#66FFFF;fontColor=#ffffff;" vertex="1" parent="1">
                    <mxGeometry x="460" y="600" width="120" height="60" as="geometry"/>
                </mxCell>
                <mxCell id="18" value="verdadero" style="text;html=1;align=center;verticalAlign=middle;resizable=0;points=[];autosize=1;strokeColor=none;fillColor=none;" vertex="1" parent="1">
                    <mxGeometry x="235" y="505" width="70" height="20" as="geometry"/>
                </mxCell>
                <mxCell id="19" value="" style="endArrow=none;html=1;exitX=0.5;exitY=1;exitDx=0;exitDy=0;" edge="1" parent="1" source="14">
                    <mxGeometry width="50" height="50" relative="1" as="geometry">
                        <mxPoint x="310" y="500" as="sourcePoint"/>
                        <mxPoint x="320" y="380" as="targetPoint"/>
                        <Array as="points">
                            <mxPoint x="320" y="660"/>
                            <mxPoint x="130" y="660"/>
                            <mxPoint x="130" y="380"/>
                        </Array>
                    </mxGeometry>
                </mxCell>
                <mxCell id="20" value="Falso" style="text;html=1;align=center;verticalAlign=middle;resizable=0;points=[];autosize=1;strokeColor=none;fillColor=none;" vertex="1" parent="1">
                    <mxGeometry x="420" y="410" width="40" height="20" as="geometry"/>
                </mxCell>
            </root>
        </mxGraphModel>
    </diagram>
</mxfile>